<?xml version="1.0" standalone="no"?><!DOCTYPE svg PUBLIC "-//W3C//DTD SVG 1.1//EN" "http://www.w3.org/Graphics/SVG/1.1/DTD/svg11.dtd"><svg t="1630577394299" class="icon" viewBox="0 0 1024 1024" version="1.1" xmlns="http://www.w3.org/2000/svg" p-id="2746" xmlns:xlink="http://www.w3.org/1999/xlink" width="200" height="200"><defs><style type="text/css"></style></defs><path d="M855.012393 1024H168.987607c-23.05424 0-41.74552-18.688166-41.745519-41.74552V41.74552C127.242088 18.688166 145.933368 0 168.987607 0h686.024786c23.05424 0 41.74552 18.688166 41.745519 41.74552v940.50896c-0.003114 23.05424-18.69128 41.74552-41.745519 41.74552z" fill="#FF4031" p-id="2747"></path><path d="M855.012393 28.236227H168.987607c-23.05424 0-41.74552 18.69128-41.745519 41.74552v202.278141C209.216523 350.774475 350.923955 402.662863 511.998443 402.662863s302.785034-51.888388 384.756355-130.40609V69.978633c0-23.05424-18.688166-41.742405-41.742405-41.742406z" fill="#E91110" p-id="2748"></path><path d="M855.012393 0H168.987607c-23.05424 0-41.74552 18.69128-41.745519 41.74552v202.27814c81.971322 78.517701 223.678753 130.40609 384.756355 130.40609s302.785034-51.888388 384.756355-130.40609V41.74552C896.754798 18.69128 878.066632 0 855.012393 0z" fill="#FF2928" p-id="2749"></path><path d="M511.998443 350.104927m-152.445108 0a152.445108 152.445108 0 1 0 304.890216 0 152.445108 152.445108 0 1 0-304.890216 0Z" fill="#FFAE00" p-id="2750"></path><path d="M585.492979 257.925339h-33.633093l-39.861443 75.001797-39.861444-75.001797h-33.633093l47.335465 89.065413h-35.501599v18.062216h44.844124v22.422062h-44.844124v18.062217h44.844124v36.747268h33.633093v-36.747268h46.089794v-18.062217h-46.089794v-22.422062h46.089794v-18.062216h-36.747268z" fill="#FFFFFF" p-id="2751"></path></svg>